# xmcd
#
# Track frame offsets: 
#        150
#        13185
#        24760
#        50955
#        62425
#        76535
#        85787
#        101235
#        109937
#        122267
#        144137
#        156227
#        168430
#
# Disc length: 2530 seconds
#
# Revision: 0
# Processed by: cddbd v1.5.2PL0 Copyright (c) Steve Scherf et al.
# Submitted via: ExactAudioCopy v1.3
#
DISCID=9609e00d
DTITLE=Various Artist - Muleskinner (Original Television Soundtrack)
DYEAR=2003
DGENRE=Bluegrass
TTITLE0=Frank Wakefield - New Camptown Races
TTITLE1=Bill Browning - Dark Hollow
TTITLE2=Peter Rowan - Land Of The Navajo
TTITLE3=Clarence White - Blackberry Blossom
TTITLE4=Ed Mayfield - Knockin' On Your Door
TTITLE5=David Grisman - Opus 57 In G Minor
TTITLE6=Clarence White - Red Rocking Chair
TTITLE7=Clarence White - Going To The Races
TTITLE8=Clarence White - Eighth Of January
TTITLE9=Clarence White - I Am A Pilgrim
TTITLE10=Bill Monroe - The Dead March
TTITLE11=Bill Monroe (with Maria Muldaur) - Sitting Alone In The Moonl
TTITLE11=ight
TTITLE12=Ervin Rouse - Orange Blossom Special
EXTD=
EXTT0=
EXTT1=
EXTT2=
EXTT3=
EXTT4=
EXTT5=
EXTT6=
EXTT7=
EXTT8=
EXTT9=
EXTT10=
EXTT11=
EXTT12=
PLAYORDER=
